<?xml version="1.0" encoding="utf-8"?>
<!-- Generator: Adobe Illustrator 24.0.0, SVG Export Plug-In . SVG Version: 6.00 Build 0)  -->
<svg version="1.1" id="Layer_1" xmlns="http://www.w3.org/2000/svg" xmlns:xlink="http://www.w3.org/1999/xlink" x="0px" y="0px"
	 viewBox="0 0 150 150" style="enable-background:new 0 0 150 150;" xml:space="preserve">
<style type="text/css">
	.st0{fill:none;}
	.st1{clip-path:url(#SVGID_1_);}
	.st2{fill:none;stroke:#5C6274;stroke-width:10.7143;}
	.st3{fill:#5C6274;}
</style>
<g id="Group-2">
	<path id="Rectangle" class="st0" d="M0.1,0h150v150H0.1V0z"/>
	<g id="Group">
		<g id="Oval">
			<g>
				<defs>
					<circle id="SVGID_3_" cx="75.1" cy="75" r="75"/>
				</defs>
				<clipPath id="SVGID_1_">
					<use xlink:href="#SVGID_3_"  style="overflow:visible;"/>
				</clipPath>
				<g class="st1">
					<g>
						<path id="path_1" class="st2" d="M75.1,150c41.4,0,75-33.6,75-75c0-41.4-33.6-75-75-75c-41.4,0-75,33.6-75,75
							C0.1,116.4,33.7,150,75.1,150z"/>
					</g>
				</g>
			</g>
		</g>
	</g>
	<path id="Shape" class="st3" d="M79.6,119.3H63V80.1h-8.3V66.6H63v-8.1c0-11,4.7-17.6,18-17.6h11.1v13.5h-6.9
		c-5.2,0-5.5,1.9-5.5,5.4l0,6.8h12.6l-1.5,13.5H79.6L79.6,119.3L79.6,119.3z"/>
</g>
</svg>
