<?xml version="1.0" encoding="utf-8"?>
<!-- Generator: Adobe Illustrator 24.0.0, SVG Export Plug-In . SVG Version: 6.00 Build 0)  -->
<svg version="1.1" id="Layer_1" xmlns="http://www.w3.org/2000/svg" xmlns:xlink="http://www.w3.org/1999/xlink" x="0px" y="0px"
	 viewBox="0 0 150 150" style="enable-background:new 0 0 150 150;" xml:space="preserve">
<style type="text/css">
	.st0{fill:none;}
	.st1{clip-path:url(#SVGID_1_);}
	.st2{fill:none;stroke:#5C6375;stroke-width:10.7143;}
	.st3{fill-rule:evenodd;clip-rule:evenodd;fill:#5C6375;}
</style>
<g>
	<desc>Created with Lunacy</desc>
	<g id="Group-3">
		<path id="Rectangle_2_" class="st0" d="M0,0h150v150H0V0z"/>
		<g id="Oval_2_">
			<g>
				<defs>
					<circle id="SVGID_3_" cx="75" cy="75" r="75"/>
				</defs>
				<clipPath id="SVGID_1_">
					<use xlink:href="#SVGID_3_"  style="overflow:visible;"/>
				</clipPath>
				<g class="st1">
					<g>
						<path id="path_1_2_" class="st2" d="M75,150c41.4,0,75-33.6,75-75c0-41.4-33.6-75-75-75C33.6,0,0,33.6,0,75
							C0,116.4,33.6,150,75,150z"/>
					</g>
				</g>
			</g>
		</g>
		<path id="Shape_2_" class="st3" d="M54.1,40.9h41.8c7.3,0,13.2,5.9,13.2,13.2v41.8c0,7.3-5.9,13.2-13.2,13.2H54.1
			c-7.3,0-13.2-5.9-13.2-13.2V54.1C40.9,46.8,46.8,40.9,54.1,40.9z M101.2,48.8l-1.5,0l-10.1,0l0,11.6l11.5,0V48.8z M65.3,68
			c2.2-3,5.7-5,9.7-5c4,0,7.5,2,9.7,5c1.4,2,2.3,4.4,2.3,7c0,6.6-5.4,12-12,12c-6.6,0-12-5.4-12-12C63,72.4,63.9,70,65.3,68z
			 M95.9,102.4c3.6,0,6.5-2.9,6.5-6.5V68H92.3c0.9,2.2,1.4,4.5,1.4,7c0,10.3-8.4,18.6-18.6,18.6c-10.3,0-18.6-8.4-18.6-18.6
			c0-2.5,0.5-4.8,1.4-7H47.6v27.9c0,3.6,2.9,6.5,6.5,6.5H95.9z"/>
	</g>
</g>
</svg>
