<?xml version="1.0" encoding="utf-8"?>
<!-- Generator: Adobe Illustrator 24.0.0, SVG Export Plug-In . SVG Version: 6.00 Build 0)  -->
<svg version="1.1" id="Layer_1" xmlns="http://www.w3.org/2000/svg" xmlns:xlink="http://www.w3.org/1999/xlink" x="0px" y="0px"
	 viewBox="0 0 150 150" style="enable-background:new 0 0 150 150;" xml:space="preserve">
<style type="text/css">
	.st0{fill:none;}
	.st1{clip-path:url(#SVGID_1_);}
	.st2{fill:none;stroke:#5C6375;stroke-width:10.7143;}
	.st3{fill:#5C6375;}
</style>
<g id="Group-4">
	<path id="Rectangle_3_" class="st0" d="M0,0h150v150H0V0z"/>
	<g id="Oval_3_">
		<g>
			<defs>
				<circle id="SVGID_3_" cx="75" cy="75" r="75"/>
			</defs>
			<clipPath id="SVGID_1_">
				<use xlink:href="#SVGID_3_"  style="overflow:visible;"/>
			</clipPath>
			<g class="st1">
				<g>
					<path id="path_1_3_" class="st2" d="M75,150c41.4,0,75-33.6,75-75c0-41.4-33.6-75-75-75C33.6,0,0,33.6,0,75
						C0,116.4,33.6,150,75,150z"/>
				</g>
			</g>
		</g>
	</g>
	<path id="Shape_3_" class="st3" d="M40.9,69.3c0,8.8,3.3,16.5,10.4,19.5c1.2,0.5,2.2,0,2.5-1.3c0.2-0.9,0.8-3.1,1-4.1
		c0.3-1.3,0.2-1.7-0.7-2.8c-2-2.4-3.3-5.5-3.3-10c0-12.9,9.6-24.4,24.9-24.4c13.6,0,21,8.4,21,19.5c0,14.7-6.5,27.1-16,27.1
		c-5.3,0-9.3-4.4-8-9.8c1.5-6.5,4.5-13.4,4.5-18.1c0-4.2-2.2-7.6-6.8-7.6c-5.4,0-9.8,5.6-9.8,13.2c0,4.8,1.6,8.1,1.6,8.1
		s-5.5,23.6-6.5,27.7c-1.9,8.2-0.3,18.3-0.2,19.3c0.1,0.6,0.9,0.7,1.2,0.3c0.5-0.7,6.9-8.7,9.1-16.7c0.6-2.3,3.6-14,3.6-14
		c1.8,3.4,6.9,6.3,12.4,6.3c16.3,0,27.3-14.9,27.3-34.9c0-15.1-12.7-29.2-32-29.2C53,37.5,40.9,54.8,40.9,69.3z"/>
</g>
</svg>
