<?xml version="1.0" encoding="utf-8"?>
<!-- Generator: Adobe Illustrator 24.0.0, SVG Export Plug-In . SVG Version: 6.00 Build 0)  -->
<svg version="1.1" id="Layer_1" xmlns="http://www.w3.org/2000/svg" xmlns:xlink="http://www.w3.org/1999/xlink" x="0px" y="0px"
	 viewBox="0 0 150 150" style="enable-background:new 0 0 150 150;" xml:space="preserve">
<style type="text/css">
	.st0{fill:none;}
	.st1{clip-path:url(#SVGID_1_);}
	.st2{fill:none;stroke:#5C6274;stroke-width:10.7143;}
	.st3{fill:#5C6274;}
</style>
<g>
	<path id="Rectangle_1_" class="st0" d="M0.1,0h150v150H0.1V0z"/>
	<g id="Oval_1_">
		<g>
			<defs>
				<circle id="SVGID_3_" cx="75.1" cy="75" r="75"/>
			</defs>
			<clipPath id="SVGID_1_">
				<use xlink:href="#SVGID_3_"  style="overflow:visible;"/>
			</clipPath>
			<g class="st1">
				<g>
					<path id="path_1_1_" class="st2" d="M75.1,150c41.4,0,75-33.6,75-75c0-41.4-33.6-75-75-75c-41.4,0-75,33.6-75,75
						C0.1,116.4,33.7,150,75.1,150z"/>
				</g>
			</g>
		</g>
	</g>
	<path id="Shape_1_" class="st3" d="M104.2,57.4c3-1.9,5.4-5,6.5-8.6c-2.8,1.8-6,3.1-9.3,3.8c-2.7-3-6.5-4.9-10.7-4.9
		c-8.1,0-14.7,6.9-14.7,15.5c0,1.2,0.1,2.4,0.4,3.5c-12.2-0.6-23-6.8-30.3-16.2c-1.3,2.3-2,5-2,7.8c0,5.4,2.6,10.1,6.5,12.9
		c-2.4-0.1-4.7-0.8-6.7-1.9v0.2c0,7.5,5.1,13.8,11.8,15.2c-1.2,0.4-2.5,0.5-3.9,0.5c-0.9,0-1.9-0.1-2.8-0.3
		c1.9,6.2,7.3,10.6,13.7,10.8c-5,4.2-11.4,6.6-18.2,6.6c-1.2,0-2.4-0.1-3.5-0.2c6.5,4.4,14.2,7,22.5,7c27,0,41.8-23.6,41.8-44.1
		c0-0.7,0-1.3,0-2c2.9-2.2,5.4-4.9,7.3-8C110,56.2,107.2,57.1,104.2,57.4z"/>
</g>
</svg>
